<?xml version="1.0" encoding="utf-8"?>
<!-- Generator: Adobe Illustrator 19.2.1, SVG Export Plug-In . SVG Version: 6.00 Build 0)  -->
<svg version="1.1" id="Layer_1" xmlns="http://www.w3.org/2000/svg" xmlns:xlink="http://www.w3.org/1999/xlink" x="0px" y="0px"
	 viewBox="0 0 30 30" style="enable-background:new 0 0 30 30;" xml:space="preserve">
<!--<style type="text/css">
	.st0{fill:#E66608;}
</style>-->
<path class="oc-icon-indicator oc-icon-status-attention" d="M20.9,18.6L20.9,18.6l-0.1-2.1c0-2.5-1.6-4.7-4-5.5c0.2-1-0.6-2-1.6-2.2c-1-0.2-2,0.6-2.2,1.6
	c0,0.2,0,0.4,0,0.6c-2.4,0.8-4,3-4,5.5v2.1h0c-0.7,0-1.3,0.6-1.3,1.3c0,0.7,0.6,1.3,1.3,1.3h4.4c-0.2,0.8,0.2,1.7,1.1,1.9
	c0.8,0.2,1.7-0.2,1.9-1.1c0.1-0.3,0.1-0.6,0-0.9h4.4c0.7,0,1.3-0.5,1.3-1.2C22.2,19.2,21.6,18.6,20.9,18.6z"/>
<path class="oc-icon-indicator oc-icon-status-attention" d="M6.1,15.6c-0.4,0-0.8-0.3-0.8-0.7c-0.9-3.5,1.2-7,4.7-7.9c0,0,0,0,0,0c0.5-0.1,0.9,0.2,1.1,0.6
	s-0.2,0.9-0.6,1.1l0,0c-2.6,0.6-4.1,3.2-3.5,5.8c0,0,0,0,0,0C7,15,6.7,15.4,6.3,15.5c0,0,0,0,0,0L6.1,15.6z"/>
<path class="oc-icon-indicator oc-icon-status-attention" d="M24,15.6c0.4,0,0.8-0.3,0.9-0.7c0.9-3.5-1.2-7-4.7-7.9c0,0,0,0,0,0c-0.5-0.1-0.9,0.2-1.1,0.6
	c-0.1,0.5,0.2,0.9,0.6,1.1l0,0c2.6,0.6,4.1,3.2,3.5,5.8c0,0,0,0,0,0c-0.1,0.5,0.2,0.9,0.6,1.1c0,0,0,0,0,0L24,15.6z"/>
</svg>
