<svg id="Layer_1" xmlns="http://www.w3.org/2000/svg" viewBox="0 0 30 30"><defs><!--<style>.cls-1{fill:#67707c;}</style>--></defs><rect class="oc-icon-indicator" x="18" y="17" width="2" height="2"/><rect class="cls-1" x="14" y="17" width="2" height="2"/><rect class="cls-1" x="10" y="17" width="2" height="2"/><rect class="cls-1" x="18" y="14" width="2" height="2"/><rect class="cls-1" x="14" y="14" width="2" height="2"/><rect class="cls-1" x="10" y="14" width="2" height="2"/><rect class="cls-1" x="8.99" y="7.56" width="2.92" height="2.3" transform="translate(1.74 19.16) rotate(-90)"/><rect class="cls-1" x="18.09" y="7.56" width="2.92" height="2.3" transform="translate(10.84 28.26) rotate(-90)"/><rect class="cls-1" x="9.4" y="10.02" width="2.09" height="0.15"/><path class="cls-1" d="M21.6,10v1.15H17.51V10h-5v1.15H8.4V10H5.5V22.75h19V10H21.6Zm0.69,10.73H7.74V12.21H22.29v8.54Z"/></svg>