<?xml version="1.0" encoding="utf-8"?>
<!-- Generator: Adobe Illustrator 19.2.1, SVG Export Plug-In . SVG Version: 6.00 Build 0)  -->
<svg version="1.1" id="Layer_1" xmlns="http://www.w3.org/2000/svg" xmlns:xlink="http://www.w3.org/1999/xlink" x="0px" y="0px"
	 viewBox="0 0 30 30" style="enable-background:new 0 0 30 30;" xml:space="preserve">
<!--<style type="text/css">
	.st0{fill:#D82515;}
</style>-->
<path class="oc-icon-indicator oc-icon-status-error" d="M22.4,19.2l-6-9.8c-0.3-0.8-1.2-1.2-2-0.9C14,8.7,13.7,9,13.6,9.4l-6,9.8c-0.8,1.3-0.2,2.3,1.3,2.3h12.2
	C22.6,21.5,23.1,20.5,22.4,19.2z M14,12.5c0.1-0.5,0.7-0.9,1.2-0.7c0.4,0.1,0.6,0.4,0.7,0.7v3c-0.1,0.5-0.7,0.9-1.2,0.7
	c-0.4-0.1-0.6-0.4-0.7-0.7V12.5z M15,19.8c-0.7,0-1.2-0.5-1.2-1.2s0.5-1.2,1.2-1.2c0.7,0,1.2,0.5,1.2,1.2
	C16.2,19.3,15.7,19.8,15,19.8C15,19.8,15,19.8,15,19.8L15,19.8z"/>
</svg>
