<svg id="Layer_1" xmlns="http://www.w3.org/2000/svg" viewBox="0 0 30 30"><defs><!--<style>.cls-1{fill:#67707c;}</style>--></defs><title>help</title><path class="cls-1" d="M15,5A10,10,0,1,0,25,15,10,10,0,0,0,15,5Zm.84,14.79H14.21V18.32h1.62Zm2.22-5.47a7.32,7.32,0,0,1-1.43,1.44,2.86,2.86,0,0,0-.7.92,3,3,0,0,0-.12,1.18H14.19c0-.64,0-.54,0-.59a3.21,3.21,0,0,1,.26-1.38,4,4,0,0,1,1-1.18,7.27,7.27,0,0,0,.93-.85,1.14,1.14,0,0,0,.24-.7,1.17,1.17,0,0,0-.42-.9,1.62,1.62,0,0,0-1.12-.37,1.7,1.7,0,0,0-1.14.39,2.06,2.06,0,0,0-.63,1.18l-1.64-.2a2.72,2.72,0,0,1,1-1.93A3.44,3.44,0,0,1,15,10.53a3.56,3.56,0,0,1,2.45.8,2.43,2.43,0,0,1,.91,1.87A2.06,2.06,0,0,1,18.06,14.32Z"/></svg>