<svg id="Layer_1" xmlns="http://www.w3.org/2000/svg" viewBox="0 0 30 30"><defs><!--<style>.cls-1{fill:#67707c;}</style>--></defs><circle class="oc-icon-indicator" cx="11.92" cy="14.76" r="2.75"/><path class="oc-icon-indicator" d="M14.09,20.11a2.48,2.48,0,0,1-.7-1.4A4.27,4.27,0,0,1,12,19c-2.63,0-5-2.77-5.9-4C7.2,13.54,9.57,11,12,11c2.62,0,5,2.76,5.89,4-0.22.3-.54,0.69-0.92,1.11a2.49,2.49,0,0,1,.65.46l0.85,0.86A15.77,15.77,0,0,0,20,15.54a1,1,0,0,0,0-1.08C19.82,14.24,16.43,9,12,9s-7.82,5.19-8,5.41a1,1,0,0,0,0,1.08C4.18,15.76,7.57,21,12,21a6.36,6.36,0,0,0,2.43-.51Z"/><path class="cls-1" d="M19.72,23.75h0a1.5,1.5,0,0,1-1.06-.44l-3.78-3.78A1.5,1.5,0,0,1,17,17.41l2.72,2.72,5-5a1.5,1.5,0,0,1,2.12,2.12l-6.07,6.07A1.5,1.5,0,0,1,19.72,23.75Z"/></svg>