<svg viewBox="0 0 30 30">
<g>
	<path class="oc-icon-indicator" d="M15,24.4c-2.5,0-4.8-1-6.5-2.7c-1.7-1.7-2.7-4.1-2.7-6.5c0-2.5,1-4.8,2.7-6.5C9,8,10,8,10.6,8.6s0.6,1.5,0,2.1
		c-1.2,1.2-1.8,2.8-1.8,4.4c0,1.7,0.7,3.2,1.8,4.4c1.2,1.2,2.8,1.8,4.4,1.8s3.2-0.7,4.4-1.8c1.2-1.2,1.8-2.8,1.8-4.4
		c0-1.7-0.7-3.2-1.8-4.4c-0.6-0.6-0.6-1.5,0-2.1s1.5-0.6,2.1,0c1.7,1.7,2.7,4.1,2.7,6.5c0,2.5-1,4.8-2.7,6.5
		C19.8,23.4,17.5,24.4,15,24.4z"/>
	<path class="oc-icon-indicator" d="M15,16.6c-0.8,0-1.5-0.7-1.5-1.5v-8c0-0.8,0.7-1.5,1.5-1.5s1.5,0.7,1.5,1.5v8C16.5,16,15.8,16.6,15,16.6z"/>
</g>
</svg>
