<svg id="Layer_1" xmlns="http://www.w3.org/2000/svg" viewBox="0 0 30 30"><defs><!--<style>.cls-1{fill:#67707c;}</style>--></defs><path class="oc-icon-indicator" d="M23.21,16.94a3.8,3.8,0,0,1,1.4-5.18l-2-3.39a3.74,3.74,0,0,1-1.9.49A3.54,3.54,0,0,1,17,5H13a3.34,3.34,0,0,1-.51,1.94A3.81,3.81,0,0,1,7.35,8.34l-2,3.4a3.75,3.75,0,0,1,1.4,1.39,3.8,3.8,0,0,1-1.39,5.18l2,3.39a3.75,3.75,0,0,1,1.89-.51A4.06,4.06,0,0,1,13,25h3.92a3.23,3.23,0,0,1,.51-1.9,3.8,3.8,0,0,1,5.18-1.38l2-3.39A3.75,3.75,0,0,1,23.21,16.94ZM15,19.06a4,4,0,1,1,4-4A4,4,0,0,1,15,19.06Z"/></svg>