<svg id="Layer_1" xmlns="http://www.w3.org/2000/svg" viewBox="0 0 30 30"><defs><!--<style>.cls-1{fill:#67707c;}</style>--></defs><title>Card_status_inclarification copy</title><path class="cls-1" d="M9.91,7.57a8.81,8.81,0,0,1,1-.73,7.9,7.9,0,0,1,1.17-.59,7.35,7.35,0,0,1,1.34-.4A7.94,7.94,0,0,1,15,5.71,6.71,6.71,0,0,1,17.11,6a4.59,4.59,0,0,1,1.61.89,3.93,3.93,0,0,1,1,1.4,4.52,4.52,0,0,1,.36,1.82,4.63,4.63,0,0,1-.26,1.65,4.5,4.5,0,0,1-.67,1.2,5.05,5.05,0,0,1-.89.88l-.91.69a7.57,7.57,0,0,0-.75.64,1.32,1.32,0,0,0-.39.7l-.35,1.75H13.21l-.28-2s0-.1,0-.15,0-.1,0-.15a1.76,1.76,0,0,1,.26-1,3.37,3.37,0,0,1,.66-.76,10.18,10.18,0,0,1,.86-.66,7.76,7.76,0,0,0,.86-.69,3.45,3.45,0,0,0,.66-.83,2.12,2.12,0,0,0,.26-1.08A1.52,1.52,0,0,0,16,9.16a2,2,0,0,0-1.36-.44,3.79,3.79,0,0,0-1.11.14,4.5,4.5,0,0,0-.76.31l-.56.31a.94.94,0,0,1-.48.14.86.86,0,0,1-.8-.46Zm2.3,14.59a2.07,2.07,0,0,1,.17-.84,2.11,2.11,0,0,1,.46-.67,2.2,2.2,0,0,1,.69-.46,2.23,2.23,0,0,1,.88-.17,2.21,2.21,0,0,1,.86.17,2.28,2.28,0,0,1,.7.46,2.07,2.07,0,0,1,.64,1.51,2.1,2.1,0,0,1-.17.84,2,2,0,0,1-.47.68,2.19,2.19,0,0,1-.7.45,2.27,2.27,0,0,1-.86.16,2.3,2.3,0,0,1-.87-.16,2.11,2.11,0,0,1-1.32-2Z"/></svg>